<svg width="125" height="39" viewBox="0 0 125 39" fill="none" xmlns="http://www.w3.org/2000/svg">
<g clip-path="url(#clip0_1_12)">
<path d="M65.8796 9.96911C65.8796 11.3544 64.7316 12.4879 63.3285 12.4879C61.9255 12.4879 60.7775 11.3544 60.7775 9.96911C60.7775 8.58377 61.8617 7.45031 63.3285 7.45031C64.7954 7.4818 65.8796 8.61525 65.8796 9.96911ZM55.4204 15.0067C55.4204 15.2271 55.4204 15.6364 55.4204 15.6364C55.4204 15.6364 54.2086 14.0936 51.6257 14.0936C47.3847 14.0936 44.0364 17.3051 44.0364 21.713C44.0364 26.1209 47.3209 29.3323 51.6257 29.3323C54.2405 29.3323 55.4204 27.7581 55.4204 27.7581V28.4193C55.4204 28.7341 55.6436 28.9545 55.9625 28.9545H59.1194V14.4714C59.1194 14.4714 56.2176 14.4714 55.9625 14.4714C55.6436 14.4714 55.4204 14.7548 55.4204 15.0067ZM55.4204 24.2948C54.8464 25.1448 53.6665 25.869 52.2635 25.869C49.7762 25.869 47.863 24.3262 47.863 21.713C47.863 19.0997 49.7762 17.557 52.2635 17.557C53.6347 17.557 54.8783 18.3126 55.4204 19.1312V24.2948ZM61.479 14.4714H65.2418V28.9545H61.479V14.4714ZM117.442 14.0936C114.859 14.0936 113.647 15.6364 113.647 15.6364V7.51328H109.885V28.986C109.885 28.986 112.786 28.986 113.042 28.986C113.36 28.986 113.584 28.7026 113.584 28.4508V27.7896C113.584 27.7896 114.795 29.3638 117.378 29.3638C121.619 29.3638 124.968 26.1209 124.968 21.7445C124.999 17.3366 121.651 14.0936 117.442 14.0936ZM116.836 25.8375C115.401 25.8375 114.253 25.1134 113.679 24.2633V19.0997C114.253 18.3441 115.529 17.5255 116.836 17.5255C119.323 17.5255 121.237 19.0683 121.237 21.6815C121.237 24.2948 119.323 25.8375 116.836 25.8375ZM107.971 20.3591V28.986H104.209V20.7999C104.209 18.4071 103.443 17.431 101.307 17.431C100.159 17.431 99.0109 17.9978 98.2775 18.8479V28.9545H94.5148V14.4714H97.4803C97.7992 14.4714 98.0224 14.7548 98.0224 15.0067V15.6364C99.1066 14.5029 100.573 14.0936 102.008 14.0936C103.635 14.0936 105.006 14.5659 106.122 15.479C107.461 16.5495 107.971 17.9348 107.971 20.3591ZM85.4268 14.0936C82.8438 14.0936 81.6321 15.6364 81.6321 15.6364V7.51328H77.8694V28.986C77.8694 28.986 80.7711 28.986 81.0262 28.986C81.3451 28.986 81.5683 28.7026 81.5683 28.4508V27.7896C81.5683 27.7896 82.7801 29.3638 85.363 29.3638C89.6041 29.3638 92.9523 26.1209 92.9523 21.7445C93.016 17.3366 89.6997 14.0936 85.4268 14.0936ZM84.8209 25.8375C83.3859 25.8375 82.238 25.1134 81.664 24.2633V19.0997C82.238 18.3441 83.5135 17.5255 84.8209 17.5255C87.3081 17.5255 89.2214 19.0683 89.2214 21.6815C89.2214 24.2948 87.3081 25.8375 84.8209 25.8375ZM74.6487 14.0936C75.7967 14.0936 76.3706 14.2825 76.3706 14.2825V17.7144C76.3706 17.7144 73.2456 16.6754 71.3005 18.8793V29.0175H67.5377V14.4714C67.5377 14.4714 70.4395 14.4714 70.6946 14.4714C71.0135 14.4714 71.2367 14.7548 71.2367 15.0067V15.6364C71.9701 14.8178 73.5007 14.0936 74.6487 14.0936ZM35.7456 27.6636C35.5543 27.1914 35.363 26.6876 35.1716 26.2783C34.8528 25.5856 34.5339 24.9244 34.2788 24.3262L34.2469 24.2948C31.5683 18.5015 28.6665 12.6453 25.6053 6.88358L25.4778 6.66319C25.1589 6.09646 24.84 5.46676 24.553 4.83706C24.1704 4.14439 23.7877 3.42024 23.15 2.72757C21.9063 1.18481 20.1206 0.334717 18.2074 0.334717C16.2622 0.334717 14.5084 1.18481 13.201 2.63312C12.627 3.32579 12.1806 4.04994 11.7979 4.74261C11.479 5.37231 11.1602 5.97052 10.8732 6.56873L10.7456 6.78913C7.74818 12.5824 4.81451 18.4386 2.10405 24.2003L2.07216 24.2633C1.78517 24.893 1.49818 25.5227 1.1793 26.2153C0.987976 26.6246 0.796649 27.0969 0.605323 27.6007C0.0951188 29.0175 -0.06432 30.3713 0.127007 31.7567C0.541547 34.6533 2.51859 37.0776 5.19716 38.1481C6.21757 38.5574 7.26986 38.7778 8.35405 38.7778C8.67293 38.7778 9.05558 38.7463 9.37446 38.7148C10.65 38.5574 11.9893 38.1481 13.2648 37.3925C14.8591 36.5109 16.3898 35.22 18.1117 33.3939C19.8336 35.2515 21.3961 36.5109 22.9586 37.3925C24.2341 38.1166 25.5734 38.5574 26.8489 38.7148C27.1678 38.7463 27.5505 38.7778 27.8694 38.7778C28.9535 38.7778 30.0696 38.5889 31.0262 38.1481C33.7686 37.0776 35.6819 34.5903 36.0964 31.7567C36.4153 30.4343 36.2558 29.0805 35.7456 27.6636ZM18.1436 29.6472C16.039 27.0339 14.6678 24.5466 14.1895 22.4686C13.9982 21.587 13.9663 20.7999 14.062 20.1073C14.1257 19.4776 14.3808 18.9423 14.6997 18.5015C15.4331 17.4625 16.6768 16.8013 18.1436 16.8013C19.6104 16.8013 20.8859 17.431 21.5875 18.5015C21.9063 18.9738 22.1296 19.509 22.2252 20.1073C22.3528 20.7999 22.289 21.6185 22.0977 22.4686C21.6194 24.5466 20.2482 27.0025 18.1436 29.6472ZM33.7048 31.4733C33.4178 33.4883 32.0785 35.22 30.1653 35.9757C29.2405 36.3535 28.2201 36.4794 27.1997 36.3535C26.2112 36.2275 25.2546 35.9442 24.2341 35.346C22.8311 34.5903 21.428 33.3939 19.7699 31.5993C22.3528 28.4822 23.9153 25.6171 24.4893 23.0668C24.7762 21.8704 24.8081 20.7999 24.6806 19.7924C24.5211 18.8164 24.1704 17.9348 23.6283 17.1792C22.4165 15.4475 20.3757 14.44 18.1117 14.44C15.8477 14.44 13.8069 15.479 12.5951 17.1792C12.053 17.9348 11.7023 18.8479 11.5428 19.7924C11.3834 20.7999 11.4153 21.9019 11.7341 23.0668C12.3081 25.6171 13.9344 28.5137 16.4535 31.6307C14.8591 33.3939 13.4242 34.5903 11.9893 35.3774C10.9688 35.9442 10.0122 36.259 9.02369 36.385C7.97139 36.5109 6.95099 36.3535 6.05813 36.0071C4.14486 35.2515 2.77369 33.4883 2.51859 31.5048C2.39104 30.5288 2.4867 29.5842 2.86935 28.5137C2.9969 28.1359 3.18823 27.7581 3.37956 27.2858C3.66655 26.6561 3.95354 26.0264 4.27241 25.3652L4.3043 25.3023C6.98287 19.572 9.88466 13.6843 12.8821 7.98556L13.0097 7.76516C13.3285 7.19843 13.6474 6.56873 13.9344 6.002C14.2533 5.37231 14.604 4.80558 15.0186 4.30182C15.8477 3.38875 16.9319 2.885 18.1436 2.885C19.3553 2.885 20.4395 3.38875 21.2686 4.30182C21.6831 4.80558 22.0339 5.37231 22.3528 6.002C22.6716 6.56873 22.9905 7.19843 23.2775 7.76516L23.4051 7.98556C26.3706 13.7158 29.2724 19.6035 31.951 25.3338V25.3652C32.2699 25.9949 32.525 26.6876 32.8438 27.2858C33.0352 27.7581 33.2265 28.1359 33.354 28.5137C33.7367 29.4898 33.8642 30.4658 33.7048 31.4733Z" fill="#244D4D"/>
</g>
<defs>
<clipPath id="clip0_1_12">
<rect width="125" height="39" fill="white"/>
</clipPath>
</defs>
</svg>
