<svg width="50" height="50" viewBox="0 0 50 50" fill="none" xmlns="http://www.w3.org/2000/svg">
<g clip-path="url(#clip0_9_199)">
<path d="M40.6901 20.4121H35.8789V17.1699C35.8789 16.3609 35.223 15.7051 34.4141 15.7051H1.46484C0.655859 15.7051 0 16.3609 0 17.1699V43.8431C0 44.6521 0.655859 45.3079 1.46484 45.3079H6.45312C8.04727 51.5463 16.851 51.5421 18.4427 45.3079H31.5572C33.1514 51.5463 41.9551 51.5421 43.5468 45.3079H48.5352C49.3441 45.3079 50 44.6521 50 43.8431V29.722C50 24.5885 45.8235 20.4121 40.6901 20.4121ZM12.4479 47.0853C10.6602 47.0853 9.20576 45.6308 9.20576 43.8431C9.38379 39.5419 15.5128 39.5432 15.6901 43.8431C15.6901 45.6308 14.2356 47.0853 12.4479 47.0853ZM32.9492 39.7371C32.2866 40.4791 31.8009 41.3814 31.5572 42.3781H18.4427C16.8485 36.1398 8.04482 36.144 6.45312 42.3781H2.92969V18.6347H32.9492V39.7371ZM37.5521 47.0853C35.7643 47.0853 34.3099 45.6308 34.3099 43.8431C34.4879 39.5419 40.6169 39.5432 40.7942 43.8431C40.7942 45.6308 39.3398 47.0853 37.5521 47.0853ZM47.0703 42.3782H43.5484C42.8891 39.6798 40.4508 37.6712 37.5521 37.6712H35.8789V23.3418H39.2253V32.8601C39.2253 33.669 39.8812 34.3249 40.6901 34.3249H47.0703V42.3782ZM47.0703 31.3951H42.155V23.5114C44.9692 24.1752 47.0703 26.7079 47.0703 29.722V31.3951Z" fill="#244D4D"/>
<path d="M35.9828 12.3586H39.9054C41.8489 12.2812 41.8475 9.50562 39.9054 9.42896H37.712L38.0082 7.65161H39.9054C41.8489 7.57417 41.8475 4.79858 39.9054 4.72192H38.4965L38.7927 2.94458H41.4743C43.4179 2.86714 43.4164 0.0915527 41.4743 0.0148926H37.5518C36.8357 0.0148926 36.2245 0.532568 36.1069 1.23892L34.5379 10.653C34.3891 11.546 35.0789 12.3586 35.9828 12.3586Z" fill="#222222"/>
<path d="M26.5689 12.3586H30.4914C32.435 12.2812 32.4335 9.50562 30.4914 9.42896H28.2981L28.5942 7.65161H30.4914C32.435 7.57417 32.4335 4.79858 30.4914 4.72192H29.0826L29.3789 2.94458H32.0605C34.004 2.86714 34.0025 0.0915527 32.0605 0.0148926H28.138C27.4219 0.0148926 26.8107 0.532568 26.6931 1.23892L25.124 10.653C24.9752 11.546 25.665 12.3586 26.5689 12.3586Z" fill="#244D4D"/>
<path d="M15.3451 12.3387C16.4824 12.5283 16.9628 11.5428 17.0308 11.1346L17.2711 9.69341L20.155 12.0316C20.8216 12.5719 21.7376 12.4057 22.2154 11.8163C22.725 11.1878 22.6285 10.2654 22.0001 9.75591L20.372 8.43608H21.7309C22.4469 8.43608 23.0581 7.91841 23.1758 7.21216L24.0914 1.72065C24.2402 0.82749 23.5504 0.0148926 22.6465 0.0148926H17.155C16.4388 0.0148926 15.8277 0.532568 15.71 1.23892L14.8009 6.69302C14.8006 6.69497 14.8004 6.69702 14.8 6.69897C14.7992 6.70288 14.7987 6.70679 14.798 6.71069C14.7948 6.72856 14.7916 6.74653 14.789 6.7646L14.1409 10.653C14.0079 11.4509 14.547 12.2057 15.3451 12.3387ZM18.3959 2.94458H20.9172L20.4901 5.5064H17.9688L18.3959 2.94458Z" fill="#244D4D"/>
<path d="M6.71544 12.3387C7.85274 12.5283 8.33311 11.5427 8.40118 11.1346L8.85089 8.43621H10.8787C12.8223 8.35876 12.8208 5.58318 10.8787 5.50652H9.33917L9.76612 2.9447H12.4478C14.3913 2.86726 14.3899 0.0916748 12.4478 0.0150146H8.5252C7.80909 0.0150146 7.19796 0.53269 7.08028 1.23904L5.51134 10.6531C5.37823 11.451 5.91739 12.2057 6.71544 12.3387Z" fill="#244D4D"/>
</g>
<defs>
<clipPath id="clip0_9_199">
<rect width="50" height="50" fill="white"/>
</clipPath>
</defs>
</svg>
