<svg width="144" height="23" viewBox="0 0 144 23" fill="none" xmlns="http://www.w3.org/2000/svg">
<path d="M3.33786e-06 17.808V1.008H7.632C9.456 1.008 11.064 1.36 12.456 2.064C13.848 2.752 14.936 3.72 15.72 4.968C16.504 6.216 16.896 7.696 16.896 9.408C16.896 11.104 16.504 12.584 15.72 13.848C14.936 15.096 13.848 16.072 12.456 16.776C11.064 17.464 9.456 17.808 7.632 17.808H3.33786e-06ZM3.888 14.616H7.44C8.56 14.616 9.528 14.408 10.344 13.992C11.176 13.56 11.816 12.952 12.264 12.168C12.728 11.384 12.96 10.464 12.96 9.408C12.96 8.336 12.728 7.416 12.264 6.648C11.816 5.864 11.176 5.264 10.344 4.848C9.528 4.416 8.56 4.2 7.44 4.2H3.888V14.616ZM25.0121 18C23.9401 18 22.9801 17.792 22.1321 17.376C21.3001 16.96 20.6521 16.328 20.1881 15.48C19.7241 14.616 19.4921 13.52 19.4921 12.192V4.896H23.2361V11.64C23.2361 12.712 23.4601 13.504 23.9081 14.016C24.3721 14.512 25.0201 14.76 25.8521 14.76C26.4281 14.76 26.9401 14.64 27.3881 14.4C27.8361 14.144 28.1881 13.76 28.4441 13.248C28.7001 12.72 28.8281 12.064 28.8281 11.28V4.896H32.5721V17.808H29.0201V14.256L29.6681 15.288C29.2361 16.184 28.5961 16.864 27.7481 17.328C26.9161 17.776 26.0041 18 25.0121 18ZM41.5847 18C40.3687 18 39.2727 17.728 38.2967 17.184C37.3207 16.624 36.5447 15.848 35.9687 14.856C35.4087 13.864 35.1287 12.696 35.1287 11.352C35.1287 9.992 35.4087 8.816 35.9687 7.824C36.5447 6.832 37.3207 6.064 38.2967 5.52C39.2727 4.976 40.3687 4.704 41.5847 4.704C42.6727 4.704 43.6247 4.944 44.4407 5.424C45.2567 5.904 45.8887 6.632 46.3367 7.608C46.7847 8.584 47.0087 9.832 47.0087 11.352C47.0087 12.856 46.7927 14.104 46.3607 15.096C45.9287 16.072 45.3047 16.8 44.4887 17.28C43.6887 17.76 42.7207 18 41.5847 18ZM42.2327 14.928C42.8407 14.928 43.3927 14.784 43.8887 14.496C44.3847 14.208 44.7767 13.8 45.0647 13.272C45.3687 12.728 45.5207 12.088 45.5207 11.352C45.5207 10.6 45.3687 9.96 45.0647 9.432C44.7767 8.904 44.3847 8.496 43.8887 8.208C43.3927 7.92 42.8407 7.776 42.2327 7.776C41.6087 7.776 41.0487 7.92 40.5527 8.208C40.0567 8.496 39.6567 8.904 39.3527 9.432C39.0647 9.96 38.9207 10.6 38.9207 11.352C38.9207 12.088 39.0647 12.728 39.3527 13.272C39.6567 13.8 40.0567 14.208 40.5527 14.496C41.0487 14.784 41.6087 14.928 42.2327 14.928ZM45.6167 17.808V15.168L45.6887 11.328L45.4487 7.512V1.43051e-06H49.1927V17.808H45.6167ZM59.0659 18C57.5939 18 56.2979 17.712 55.1779 17.136C54.0739 16.56 53.2179 15.776 52.6099 14.784C52.0019 13.776 51.6979 12.632 51.6979 11.352C51.6979 10.056 51.9939 8.912 52.5859 7.92C53.1939 6.912 54.0179 6.128 55.0579 5.568C56.0979 4.992 57.2739 4.704 58.5859 4.704C59.8499 4.704 60.9859 4.976 61.9939 5.52C63.0179 6.048 63.8259 6.816 64.4179 7.824C65.0099 8.816 65.3059 10.008 65.3059 11.4C65.3059 11.544 65.2979 11.712 65.2819 11.904C65.2659 12.08 65.2499 12.248 65.2339 12.408H54.7459V10.224H63.2659L61.8259 10.872C61.8259 10.2 61.6899 9.616 61.4179 9.12C61.1459 8.624 60.7699 8.24 60.2899 7.968C59.8099 7.68 59.2499 7.536 58.6099 7.536C57.9699 7.536 57.4019 7.68 56.9059 7.968C56.4259 8.24 56.0499 8.632 55.7779 9.144C55.5059 9.64 55.3699 10.232 55.3699 10.92V11.496C55.3699 12.2 55.5219 12.824 55.8259 13.368C56.1459 13.896 56.5859 14.304 57.1459 14.592C57.7219 14.864 58.3939 15 59.1619 15C59.8499 15 60.4499 14.896 60.9619 14.688C61.4899 14.48 61.9699 14.168 62.4019 13.752L64.3939 15.912C63.8019 16.584 63.0579 17.104 62.1619 17.472C61.2659 17.824 60.2339 18 59.0659 18ZM73.5825 18.096C72.2385 18.096 70.9505 17.92 69.7185 17.568C68.4865 17.2 67.4945 16.728 66.7425 16.152L68.0625 13.224C68.7825 13.736 69.6305 14.16 70.6065 14.496C71.5985 14.816 72.5985 14.976 73.6065 14.976C74.3745 14.976 74.9905 14.904 75.4545 14.76C75.9345 14.6 76.2865 14.384 76.5105 14.112C76.7345 13.84 76.8465 13.528 76.8465 13.176C76.8465 12.728 76.6705 12.376 76.3185 12.12C75.9665 11.848 75.5025 11.632 74.9265 11.472C74.3505 11.296 73.7105 11.136 73.0065 10.992C72.3185 10.832 71.6225 10.64 70.9185 10.416C70.2305 10.192 69.5985 9.904 69.0225 9.552C68.4465 9.2 67.9745 8.736 67.6065 8.16C67.2545 7.584 67.0785 6.848 67.0785 5.952C67.0785 4.992 67.3345 4.12 67.8465 3.336C68.3745 2.536 69.1585 1.904 70.1985 1.44C71.2545 0.960002 72.5745 0.720002 74.1585 0.720002C75.2145 0.720002 76.2545 0.848002 77.2785 1.104C78.3025 1.344 79.2065 1.712 79.9905 2.208L78.7905 5.16C78.0065 4.712 77.2225 4.384 76.4385 4.176C75.6545 3.952 74.8865 3.84 74.1345 3.84C73.3825 3.84 72.7665 3.928 72.2865 4.104C71.8065 4.28 71.4625 4.512 71.2545 4.8C71.0465 5.072 70.9425 5.392 70.9425 5.76C70.9425 6.192 71.1185 6.544 71.4705 6.816C71.8225 7.072 72.2865 7.28 72.8625 7.44C73.4385 7.6 74.0705 7.76 74.7585 7.92C75.4625 8.08 76.1585 8.264 76.8465 8.472C77.5505 8.68 78.1905 8.96 78.7665 9.312C79.3425 9.664 79.8065 10.128 80.1585 10.704C80.5265 11.28 80.7105 12.008 80.7105 12.888C80.7105 13.832 80.4465 14.696 79.9185 15.48C79.3905 16.264 78.5985 16.896 77.5425 17.376C76.5025 17.856 75.1825 18.096 73.5825 18.096ZM90.9512 4.704C91.9752 4.704 92.8872 4.912 93.6872 5.328C94.5032 5.728 95.1432 6.352 95.6072 7.2C96.0712 8.032 96.3032 9.104 96.3032 10.416V17.808H92.5592V10.992C92.5592 9.952 92.3272 9.184 91.8632 8.688C91.4152 8.192 90.7752 7.944 89.9432 7.944C89.3512 7.944 88.8152 8.072 88.3352 8.328C87.8712 8.568 87.5032 8.944 87.2312 9.456C86.9752 9.968 86.8472 10.624 86.8472 11.424V17.808H83.1032V1.43051e-06H86.8472V8.472L86.0072 7.392C86.4712 6.528 87.1352 5.864 87.9992 5.4C88.8632 4.936 89.8472 4.704 90.9512 4.704ZM107.617 17.808V15.288L107.377 14.736V10.224C107.377 9.424 107.129 8.8 106.633 8.352C106.153 7.904 105.409 7.68 104.401 7.68C103.713 7.68 103.033 7.792 102.361 8.016C101.705 8.224 101.145 8.512 100.681 8.88L99.3369 6.264C100.041 5.768 100.889 5.384 101.881 5.112C102.873 4.84 103.881 4.704 104.905 4.704C106.873 4.704 108.401 5.168 109.489 6.096C110.577 7.024 111.121 8.472 111.121 10.44V17.808H107.617ZM103.681 18C102.673 18 101.809 17.832 101.089 17.496C100.369 17.144 99.8169 16.672 99.4329 16.08C99.0489 15.488 98.8569 14.824 98.8569 14.088C98.8569 13.32 99.0409 12.648 99.4089 12.072C99.7929 11.496 100.393 11.048 101.209 10.728C102.025 10.392 103.089 10.224 104.401 10.224H107.833V12.408H104.809C103.929 12.408 103.321 12.552 102.985 12.84C102.665 13.128 102.505 13.488 102.505 13.92C102.505 14.4 102.689 14.784 103.057 15.072C103.441 15.344 103.961 15.48 104.617 15.48C105.241 15.48 105.801 15.336 106.297 15.048C106.793 14.744 107.153 14.304 107.377 13.728L107.953 15.456C107.681 16.288 107.185 16.92 106.465 17.352C105.745 17.784 104.817 18 103.681 18ZM122.141 18C121.053 18 120.101 17.76 119.285 17.28C118.469 16.8 117.829 16.072 117.365 15.096C116.917 14.104 116.693 12.856 116.693 11.352C116.693 9.832 116.909 8.584 117.341 7.608C117.773 6.632 118.397 5.904 119.213 5.424C120.029 4.944 121.005 4.704 122.141 4.704C123.357 4.704 124.445 4.984 125.405 5.544C126.381 6.088 127.149 6.856 127.709 7.848C128.285 8.84 128.573 10.008 128.573 11.352C128.573 12.712 128.285 13.888 127.709 14.88C127.149 15.872 126.381 16.64 125.405 17.184C124.445 17.728 123.357 18 122.141 18ZM114.509 22.464V4.896H118.085V7.536L118.013 11.376L118.253 15.192V22.464H114.509ZM121.493 14.928C122.117 14.928 122.669 14.784 123.149 14.496C123.645 14.208 124.037 13.8 124.325 13.272C124.629 12.728 124.781 12.088 124.781 11.352C124.781 10.6 124.629 9.96 124.325 9.432C124.037 8.904 123.645 8.496 123.149 8.208C122.669 7.92 122.117 7.776 121.493 7.776C120.869 7.776 120.309 7.92 119.813 8.208C119.317 8.496 118.925 8.904 118.637 9.432C118.349 9.96 118.205 10.6 118.205 11.352C118.205 12.088 118.349 12.728 118.637 13.272C118.925 13.8 119.317 14.208 119.813 14.496C120.309 14.784 120.869 14.928 121.493 14.928ZM137.488 18C136.016 18 134.72 17.712 133.6 17.136C132.496 16.56 131.64 15.776 131.032 14.784C130.424 13.776 130.12 12.632 130.12 11.352C130.12 10.056 130.416 8.912 131.008 7.92C131.616 6.912 132.44 6.128 133.48 5.568C134.52 4.992 135.696 4.704 137.008 4.704C138.272 4.704 139.408 4.976 140.416 5.52C141.44 6.048 142.248 6.816 142.84 7.824C143.432 8.816 143.728 10.008 143.728 11.4C143.728 11.544 143.72 11.712 143.704 11.904C143.688 12.08 143.672 12.248 143.656 12.408H133.168V10.224H141.688L140.248 10.872C140.248 10.2 140.112 9.616 139.84 9.12C139.568 8.624 139.192 8.24 138.712 7.968C138.232 7.68 137.672 7.536 137.032 7.536C136.392 7.536 135.824 7.68 135.328 7.968C134.848 8.24 134.472 8.632 134.2 9.144C133.928 9.64 133.792 10.232 133.792 10.92V11.496C133.792 12.2 133.944 12.824 134.248 13.368C134.568 13.896 135.008 14.304 135.568 14.592C136.144 14.864 136.816 15 137.584 15C138.272 15 138.872 14.896 139.384 14.688C139.912 14.48 140.392 14.168 140.824 13.752L142.816 15.912C142.224 16.584 141.48 17.104 140.584 17.472C139.688 17.824 138.656 18 137.488 18Z" fill="#244D4D"/>
</svg>
