<svg width="144" height="23" viewBox="0 0 144 23" fill="none" xmlns="http://www.w3.org/2000/svg">
<path d="M3.33786e-06 17.8081V1.0081H7.632C9.456 1.0081 11.064 1.3601 12.456 2.06411C13.848 2.7521 14.936 3.7201 15.72 4.9681C16.504 6.2161 16.896 7.69611 16.896 9.4081C16.896 11.1041 16.504 12.5841 15.72 13.8481C14.936 15.0961 13.848 16.0721 12.456 16.7761C11.064 17.4641 9.456 17.8081 7.632 17.8081H3.33786e-06ZM3.888 14.6161H7.44C8.56 14.6161 9.528 14.4081 10.344 13.9921C11.176 13.5601 11.816 12.9521 12.264 12.1681C12.728 11.3841 12.96 10.4641 12.96 9.4081C12.96 8.3361 12.728 7.4161 12.264 6.6481C11.816 5.86411 11.176 5.26411 10.344 4.8481C9.528 4.4161 8.56 4.2001 7.44 4.2001H3.888V14.6161ZM25.0121 18.0001C23.9401 18.0001 22.9801 17.7921 22.1321 17.3761C21.3001 16.9601 20.6521 16.3281 20.1881 15.4801C19.7241 14.6161 19.4921 13.5201 19.4921 12.1921V4.8961H23.2361V11.6401C23.2361 12.7121 23.4601 13.5041 23.9081 14.0161C24.3721 14.5121 25.0201 14.7601 25.8521 14.7601C26.4281 14.7601 26.9401 14.6401 27.3881 14.4001C27.8361 14.1441 28.1881 13.7601 28.4441 13.2481C28.7001 12.7201 28.8281 12.0641 28.8281 11.2801V4.8961H32.5721V17.8081H29.0201V14.2561L29.6681 15.2881C29.2361 16.1841 28.5961 16.8641 27.7481 17.3281C26.9161 17.7761 26.0041 18.0001 25.0121 18.0001ZM41.5847 18.0001C40.3687 18.0001 39.2727 17.7281 38.2967 17.1841C37.3207 16.6241 36.5447 15.8481 35.9687 14.8561C35.4087 13.8641 35.1287 12.6961 35.1287 11.3521C35.1287 9.99211 35.4087 8.81611 35.9687 7.82411C36.5447 6.83211 37.3207 6.06411 38.2967 5.5201C39.2727 4.97611 40.3687 4.70411 41.5847 4.70411C42.6727 4.70411 43.6247 4.94411 44.4407 5.4241C45.2567 5.9041 45.8887 6.6321 46.3367 7.60811C46.7847 8.58411 47.0087 9.8321 47.0087 11.3521C47.0087 12.8561 46.7927 14.1041 46.3607 15.0961C45.9287 16.0721 45.3047 16.8001 44.4887 17.2801C43.6887 17.7601 42.7207 18.0001 41.5847 18.0001ZM42.2327 14.9281C42.8407 14.9281 43.3927 14.7841 43.8887 14.4961C44.3847 14.2081 44.7767 13.8001 45.0647 13.2721C45.3687 12.7281 45.5207 12.0881 45.5207 11.3521C45.5207 10.6001 45.3687 9.96011 45.0647 9.43211C44.7767 8.9041 44.3847 8.4961 43.8887 8.20811C43.3927 7.92011 42.8407 7.77611 42.2327 7.77611C41.6087 7.77611 41.0487 7.92011 40.5527 8.20811C40.0567 8.4961 39.6567 8.9041 39.3527 9.43211C39.0647 9.96011 38.9207 10.6001 38.9207 11.3521C38.9207 12.0881 39.0647 12.7281 39.3527 13.2721C39.6567 13.8001 40.0567 14.2081 40.5527 14.4961C41.0487 14.7841 41.6087 14.9281 42.2327 14.9281ZM45.6167 17.8081V15.1681L45.6887 11.3281L45.4487 7.5121V0.000104427H49.1927V17.8081H45.6167ZM59.0659 18.0001C57.5939 18.0001 56.2979 17.7121 55.1779 17.1361C54.0739 16.5601 53.2179 15.7761 52.6099 14.7841C52.0019 13.7761 51.6979 12.6321 51.6979 11.3521C51.6979 10.0561 51.9939 8.9121 52.5859 7.9201C53.1939 6.9121 54.0179 6.1281 55.0579 5.5681C56.0979 4.99211 57.2739 4.70411 58.5859 4.70411C59.8499 4.70411 60.9859 4.97611 61.9939 5.5201C63.0179 6.0481 63.8259 6.8161 64.4179 7.82411C65.0099 8.81611 65.3059 10.0081 65.3059 11.4001C65.3059 11.5441 65.2979 11.7121 65.2819 11.9041C65.2659 12.0801 65.2499 12.2481 65.2339 12.4081H54.7459V10.2241H63.2659L61.8259 10.8721C61.8259 10.2001 61.6899 9.6161 61.4179 9.12011C61.1459 8.62411 60.7699 8.24011 60.2899 7.9681C59.8099 7.6801 59.2499 7.5361 58.6099 7.5361C57.9699 7.5361 57.4019 7.6801 56.9059 7.9681C56.4259 8.24011 56.0499 8.63211 55.7779 9.1441C55.5059 9.64011 55.3699 10.2321 55.3699 10.9201V11.4961C55.3699 12.2001 55.5219 12.8241 55.8259 13.3681C56.1459 13.8961 56.5859 14.3041 57.1459 14.5921C57.7219 14.8641 58.3939 15.0001 59.1619 15.0001C59.8499 15.0001 60.4499 14.8961 60.9619 14.6881C61.4899 14.4801 61.9699 14.1681 62.4019 13.7521L64.3939 15.9121C63.8019 16.5841 63.0579 17.1041 62.1619 17.4721C61.2659 17.8241 60.2339 18.0001 59.0659 18.0001ZM73.5825 18.0961C72.2385 18.0961 70.9505 17.9201 69.7185 17.5681C68.4865 17.2001 67.4945 16.7281 66.7425 16.1521L68.0625 13.2241C68.7825 13.7361 69.6305 14.1601 70.6065 14.4961C71.5985 14.8161 72.5985 14.9761 73.6065 14.9761C74.3745 14.9761 74.9905 14.9041 75.4545 14.7601C75.9345 14.6001 76.2865 14.3841 76.5105 14.1121C76.7345 13.8401 76.8465 13.5281 76.8465 13.1761C76.8465 12.7281 76.6705 12.3761 76.3185 12.1201C75.9665 11.8481 75.5025 11.6321 74.9265 11.4721C74.3505 11.2961 73.7105 11.1361 73.0065 10.9921C72.3185 10.8321 71.6225 10.6401 70.9185 10.4161C70.2305 10.1921 69.5985 9.9041 69.0225 9.55211C68.4465 9.2001 67.9745 8.7361 67.6065 8.16011C67.2545 7.58411 67.0785 6.8481 67.0785 5.95211C67.0785 4.99211 67.3345 4.1201 67.8465 3.3361C68.3745 2.5361 69.1585 1.9041 70.1985 1.4401C71.2545 0.960105 72.5745 0.720105 74.1585 0.720105C75.2145 0.720105 76.2545 0.848105 77.2785 1.1041C78.3025 1.3441 79.2065 1.7121 79.9905 2.2081L78.7905 5.16011C78.0065 4.71211 77.2225 4.38411 76.4385 4.17611C75.6545 3.95211 74.8865 3.84011 74.1345 3.84011C73.3825 3.84011 72.7665 3.9281 72.2865 4.1041C71.8065 4.28011 71.4625 4.5121 71.2545 4.8001C71.0465 5.0721 70.9425 5.3921 70.9425 5.7601C70.9425 6.1921 71.1185 6.5441 71.4705 6.8161C71.8225 7.0721 72.2865 7.2801 72.8625 7.44011C73.4385 7.60011 74.0705 7.7601 74.7585 7.9201C75.4625 8.08011 76.1585 8.26411 76.8465 8.4721C77.5505 8.6801 78.1905 8.96011 78.7665 9.31211C79.3425 9.66411 79.8065 10.1281 80.1585 10.7041C80.5265 11.2801 80.7105 12.0081 80.7105 12.8881C80.7105 13.8321 80.4465 14.6961 79.9185 15.4801C79.3905 16.2641 78.5985 16.8961 77.5425 17.3761C76.5025 17.8561 75.1825 18.0961 73.5825 18.0961ZM90.9512 4.70411C91.9752 4.70411 92.8872 4.91211 93.6872 5.3281C94.5032 5.7281 95.1432 6.3521 95.6072 7.2001C96.0712 8.0321 96.3032 9.1041 96.3032 10.4161V17.8081H92.5592V10.9921C92.5592 9.95211 92.3272 9.18411 91.8632 8.6881C91.4152 8.19211 90.7752 7.94411 89.9432 7.94411C89.3512 7.94411 88.8152 8.07211 88.3352 8.32811C87.8712 8.5681 87.5032 8.9441 87.2312 9.4561C86.9752 9.96811 86.8472 10.6241 86.8472 11.4241V17.8081H83.1032V0.000104427H86.8472V8.4721L86.0072 7.39211C86.4712 6.5281 87.1352 5.8641 87.9992 5.4001C88.8632 4.93611 89.8472 4.70411 90.9512 4.70411ZM107.617 17.8081V15.2881L107.377 14.7361V10.2241C107.377 9.4241 107.129 8.8001 106.633 8.3521C106.153 7.9041 105.409 7.6801 104.401 7.6801C103.713 7.6801 103.033 7.7921 102.361 8.0161C101.705 8.22411 101.145 8.51211 100.681 8.88011L99.3369 6.2641C100.041 5.7681 100.889 5.3841 101.881 5.1121C102.873 4.84011 103.881 4.70411 104.905 4.70411C106.873 4.70411 108.401 5.16811 109.489 6.0961C110.577 7.02411 111.121 8.47211 111.121 10.4401V17.8081H107.617ZM103.681 18.0001C102.673 18.0001 101.809 17.8321 101.089 17.4961C100.369 17.1441 99.8169 16.6721 99.4329 16.0801C99.0489 15.4881 98.8569 14.8241 98.8569 14.0881C98.8569 13.3201 99.0409 12.6481 99.4089 12.0721C99.7929 11.4961 100.393 11.0481 101.209 10.7281C102.025 10.3921 103.089 10.2241 104.401 10.2241H107.833V12.4081H104.809C103.929 12.4081 103.321 12.5521 102.985 12.8401C102.665 13.1281 102.505 13.4881 102.505 13.9201C102.505 14.4001 102.689 14.7841 103.057 15.0721C103.441 15.3441 103.961 15.4801 104.617 15.4801C105.241 15.4801 105.801 15.3361 106.297 15.0481C106.793 14.7441 107.153 14.3041 107.377 13.7281L107.953 15.4561C107.681 16.2881 107.185 16.9201 106.465 17.3521C105.745 17.7841 104.817 18.0001 103.681 18.0001ZM122.141 18.0001C121.053 18.0001 120.101 17.7601 119.285 17.2801C118.469 16.8001 117.829 16.0721 117.365 15.0961C116.917 14.1041 116.693 12.8561 116.693 11.3521C116.693 9.8321 116.909 8.58411 117.341 7.60811C117.773 6.6321 118.397 5.9041 119.213 5.4241C120.029 4.94411 121.005 4.70411 122.141 4.70411C123.357 4.70411 124.445 4.98411 125.405 5.5441C126.381 6.0881 127.149 6.8561 127.709 7.8481C128.285 8.84011 128.573 10.0081 128.573 11.3521C128.573 12.7121 128.285 13.8881 127.709 14.8801C127.149 15.8721 126.381 16.6401 125.405 17.1841C124.445 17.7281 123.357 18.0001 122.141 18.0001ZM114.509 22.4641V4.8961H118.085V7.5361L118.013 11.3761L118.253 15.1921V22.4641H114.509ZM121.493 14.9281C122.117 14.9281 122.669 14.7841 123.149 14.4961C123.645 14.2081 124.037 13.8001 124.325 13.2721C124.629 12.7281 124.781 12.0881 124.781 11.3521C124.781 10.6001 124.629 9.96011 124.325 9.43211C124.037 8.9041 123.645 8.4961 123.149 8.20811C122.669 7.92011 122.117 7.77611 121.493 7.77611C120.869 7.77611 120.309 7.92011 119.813 8.20811C119.317 8.4961 118.925 8.9041 118.637 9.43211C118.349 9.96011 118.205 10.6001 118.205 11.3521C118.205 12.0881 118.349 12.7281 118.637 13.2721C118.925 13.8001 119.317 14.2081 119.813 14.4961C120.309 14.7841 120.869 14.9281 121.493 14.9281ZM137.488 18.0001C136.016 18.0001 134.72 17.7121 133.6 17.1361C132.496 16.5601 131.64 15.7761 131.032 14.7841C130.424 13.7761 130.12 12.6321 130.12 11.3521C130.12 10.0561 130.416 8.9121 131.008 7.9201C131.616 6.9121 132.44 6.1281 133.48 5.5681C134.52 4.99211 135.696 4.70411 137.008 4.70411C138.272 4.70411 139.408 4.97611 140.416 5.5201C141.44 6.0481 142.248 6.8161 142.84 7.82411C143.432 8.81611 143.728 10.0081 143.728 11.4001C143.728 11.5441 143.72 11.7121 143.704 11.9041C143.688 12.0801 143.672 12.2481 143.656 12.4081H133.168V10.2241H141.688L140.248 10.8721C140.248 10.2001 140.112 9.6161 139.84 9.12011C139.568 8.62411 139.192 8.24011 138.712 7.9681C138.232 7.6801 137.672 7.5361 137.032 7.5361C136.392 7.5361 135.824 7.6801 135.328 7.9681C134.848 8.24011 134.472 8.63211 134.2 9.1441C133.928 9.64011 133.792 10.2321 133.792 10.9201V11.4961C133.792 12.2001 133.944 12.8241 134.248 13.3681C134.568 13.8961 135.008 14.3041 135.568 14.5921C136.144 14.8641 136.816 15.0001 137.584 15.0001C138.272 15.0001 138.872 14.8961 139.384 14.6881C139.912 14.4801 140.392 14.1681 140.824 13.7521L142.816 15.9121C142.224 16.5841 141.48 17.1041 140.584 17.4721C139.688 17.8241 138.656 18.0001 137.488 18.0001Z" fill="white"/>
</svg>
