<svg width="24" height="24" viewBox="0 0 24 24" fill="none" xmlns="http://www.w3.org/2000/svg">
<g clip-path="url(#clip0_16_114)">
<path d="M1.99169 13.4275H22.0083C22.8333 13.4275 23.502 12.7587 23.502 11.9337C23.502 11.1087 22.8333 10.4399 22.0083 10.4399H1.99169C1.16669 10.4399 0.497925 11.1087 0.497925 11.9337C0.497878 12.7587 1.16669 13.4275 1.99169 13.4275Z" fill="#666666"/>
<path d="M13.4938 7.21802C13.0578 7.21802 12.7031 7.57267 12.7031 8.00866V9.03367H18.8221V8.00866C18.8221 7.57267 18.4675 7.21802 18.0315 7.21802H13.4938Z" fill="#666666"/>
<path d="M3.77114 8.00865C3.77114 6.79726 4.75664 5.81176 5.96803 5.81176H10.5058C11.0822 5.81176 11.6072 6.03526 11.9995 6.39976C12.3918 6.03526 12.9168 5.81176 13.4933 5.81176H18.031C19.2424 5.81176 20.2279 6.79726 20.2279 8.00865V9.03367H22.5102V4.19054C22.5102 3.36554 21.8414 2.69678 21.0165 2.69678H2.98266C2.15766 2.69678 1.48889 3.36554 1.48889 4.19054V9.03367H3.77114V8.00865Z" fill="#666666"/>
<path d="M5.96856 7.21802C5.53257 7.21802 5.17792 7.57267 5.17792 8.00866V9.03367H11.2969V8.00866C11.2969 7.57267 10.9423 7.21802 10.5063 7.21802H5.96856Z" fill="#666666"/>
<path d="M0 14.8337V21.3033H1.40625V18.7394H22.5938V21.3033H24V14.8337H0Z" fill="#666666"/>
</g>
<defs>
<clipPath id="clip0_16_114">
<rect width="24" height="24" fill="white"/>
</clipPath>
</defs>
</svg>
