<svg width="16" height="16" viewBox="0 0 16 16" fill="none" xmlns="http://www.w3.org/2000/svg">
<g clip-path="url(#clip0_16_233)">
<path d="M15.9584 6.13748C15.8536 5.81349 15.5663 5.58339 15.2263 5.55275L10.6082 5.13342L8.78215 0.859266C8.6475 0.546026 8.34085 0.343262 8.00014 0.343262C7.65944 0.343262 7.35279 0.546026 7.21814 0.859999L5.39204 5.13342L0.773272 5.55275C0.433908 5.58412 0.14728 5.81349 0.0419302 6.13748C-0.0634192 6.46146 0.0338734 6.81682 0.290594 7.04082L3.78128 10.1022L2.75196 14.6364C2.67664 14.9697 2.80604 15.3143 3.08266 15.5143C3.23134 15.6217 3.4053 15.6764 3.58072 15.6764C3.73197 15.6764 3.88199 15.6356 4.01664 15.5551L8.00014 13.1743L11.9822 15.5551C12.2736 15.7304 12.6409 15.7144 12.9169 15.5143C13.1936 15.3137 13.3229 14.969 13.2476 14.6364L12.2183 10.1022L15.709 7.04143C15.9657 6.81682 16.0637 6.46207 15.9584 6.13748Z" fill="#FFB624"/>
</g>
<defs>
<clipPath id="clip0_16_233">
<rect width="16" height="16" fill="white"/>
</clipPath>
</defs>
</svg>
