<svg width="20" height="20" viewBox="0 0 20 20" fill="none" xmlns="http://www.w3.org/2000/svg">
<g clip-path="url(#clip0_16_440)">
<path d="M10.0009 19.9998C15.5237 19.9998 20.0008 15.5227 20.0008 9.99991C20.0008 4.47711 15.5237 0 10.0009 0C4.47812 0 0.00100708 4.47711 0.00100708 9.99991C0.00100708 15.5227 4.47812 19.9998 10.0009 19.9998Z" fill="white"/>
<path d="M16.1254 7.1868C15.6969 7.37683 15.2359 7.50535 14.7525 7.56275C15.2461 7.26702 15.6249 6.79909 15.8036 6.24061C15.3418 6.51459 14.83 6.71335 14.2858 6.82048C13.8498 6.35612 13.2285 6.06592 12.5406 6.06592C11.2208 6.06592 10.1504 7.13636 10.1504 8.45618C10.1504 8.64353 10.1716 8.82588 10.2126 9.00093C8.22608 8.90129 6.46472 7.94975 5.28572 6.50318C5.08001 6.85613 4.962 7.26702 4.962 7.705C4.962 8.53408 5.38429 9.266 6.02531 9.69454C5.63368 9.68224 5.26486 9.57475 4.94275 9.39524C4.94257 9.4054 4.94257 9.41556 4.94257 9.42554C4.94257 10.5837 5.76684 11.5497 6.86009 11.7691C6.65973 11.824 6.44814 11.8531 6.23048 11.8531C6.07611 11.8531 5.92656 11.8383 5.78074 11.8105C6.08485 12.7599 6.9674 13.451 8.0136 13.4704C7.19539 14.1116 6.16489 14.4936 5.04471 14.4936C4.85219 14.4936 4.66146 14.4824 4.47482 14.4601C5.53207 15.1385 6.78879 15.5341 8.13856 15.5341C12.5351 15.5341 14.9395 11.8919 14.9395 8.73301C14.9395 8.62944 14.9371 8.52623 14.9325 8.42391C15.3999 8.08701 15.8051 7.66614 16.1254 7.1868Z" fill="#305F64"/>
</g>
<defs>
<clipPath id="clip0_16_440">
<rect width="20" height="20" fill="white"/>
</clipPath>
</defs>
</svg>
