<svg width="24" height="24" viewBox="0 0 24 24" fill="none" xmlns="http://www.w3.org/2000/svg">
<g clip-path="url(#clip0_16_79)">
<path d="M0.00549316 24H9.89148V18.3308H0.00549316V24ZM2.16765 19.7989H7.77615V21.2045H2.16765V19.7989Z" fill="#666666"/>
<path d="M0.00549316 16.9251H9.89148V11.3496H0.00549316V16.9251ZM2.16765 12.8452H7.77615V14.2508H2.16765V12.8452Z" fill="#666666"/>
<path d="M11.2974 23.9999H23.9945V11.3496H11.2974V23.9999ZM19.7309 12.8452H21.1365V14.2855H19.7309V12.8452ZM16.9197 12.8452H18.3253V14.2855H16.9197V12.8452ZM14.1086 12.8452H15.5141V14.2855H14.1086V12.8452ZM14.1086 15.543H21.1365V21.1888H14.1086V15.543Z" fill="#666666"/>
<path d="M19.7309 3.24052V0H15.5141V3.24286L11.2974 6.054V8.53852H23.9945V6.05166L19.7309 3.24052Z" fill="#666666"/>
</g>
<defs>
<clipPath id="clip0_16_79">
<rect width="24" height="24" fill="white"/>
</clipPath>
</defs>
</svg>
