<svg width="16" height="16" viewBox="0 0 16 16" fill="none" xmlns="http://www.w3.org/2000/svg">
<g clip-path="url(#clip0_16_384)">
<path d="M10.6059 8.08183L15.9999 11.4918V4.52783L10.6059 8.08183Z" fill="#7F7F7F"/>
<path d="M0 4.52783V11.4918L5.394 8.08183L0 4.52783Z" fill="#7F7F7F"/>
<path d="M15 2.5H1.00003C0.501029 2.5 0.105029 2.872 0.0300293 3.351L8.00003 8.602L15.97 3.351C15.895 2.872 15.499 2.5 15 2.5Z" fill="#7F7F7F"/>
<path d="M9.69007 8.68606L8.27507 9.61806C8.19107 9.67306 8.09607 9.70006 8.00007 9.70006C7.90407 9.70006 7.80907 9.67306 7.72507 9.61806L6.31007 8.68506L0.032074 12.6561C0.109074 13.1311 0.503074 13.5001 1.00007 13.5001H15.0001C15.4971 13.5001 15.8911 13.1311 15.9681 12.6561L9.69007 8.68606Z" fill="#7F7F7F"/>
</g>
<defs>
<clipPath id="clip0_16_384">
<rect width="16" height="16" fill="white"/>
</clipPath>
</defs>
</svg>
