<svg width="20" height="20" viewBox="0 0 20 20" fill="none" xmlns="http://www.w3.org/2000/svg">
<g clip-path="url(#clip0_16_435)">
<path d="M10 20C15.5228 20 20 15.5228 20 10C20 4.47715 15.5228 0 10 0C4.47715 0 0 4.47715 0 10C0 15.5228 4.47715 20 10 20Z" fill="white"/>
<path d="M12.514 10.3914H10.7296V16.9285H8.02613V10.3914H6.74034V8.09398H8.02613V6.6073C8.02613 5.54416 8.53114 3.87939 10.7537 3.87939L12.7562 3.88777V6.1178H11.3032C11.0649 6.1178 10.7298 6.23688 10.7298 6.74402V8.09612H12.7502L12.514 10.3914Z" fill="#305F64"/>
</g>
<defs>
<clipPath id="clip0_16_435">
<rect width="20" height="20" fill="white"/>
</clipPath>
</defs>
</svg>
