<svg width="20" height="20" viewBox="0 0 20 20" fill="none" xmlns="http://www.w3.org/2000/svg">
<g clip-path="url(#clip0_16_451)">
<path d="M10 20C15.5229 20 20 15.5229 20 10C20 4.47716 15.5229 0 10 0C4.47716 0 0 4.47716 0 10C0 15.5229 4.47716 20 10 20Z" fill="white"/>
<path d="M17.0707 2.92773C20.976 6.83332 20.9763 13.1652 17.0707 17.0708C13.1654 20.9761 6.83322 20.9762 2.92763 17.0708L17.0707 2.92773Z" fill="white"/>
<path d="M19.7994 12.0024L14.8501 7.05322L9.01286 7.71783L5.48201 13.1841L12.0797 19.7816C15.9587 18.961 19.0083 15.8927 19.7994 12.0024Z" fill="white"/>
<path d="M15.2334 8.07002C15.2334 7.23171 14.5543 6.55225 13.7164 6.55225H6.59929C5.76161 6.55225 5.08261 7.23188 5.08261 8.07002V12.14C5.08261 12.9783 5.76174 13.6578 6.59929 13.6578H13.7163C14.5543 13.6578 15.2333 12.9781 15.2333 12.14V8.07002H15.2334ZM9.14261 11.822V7.99929L12.0416 9.91071L9.14261 11.822Z" fill="#305F64"/>
</g>
<defs>
<clipPath id="clip0_16_451">
<rect width="20" height="20" fill="white"/>
</clipPath>
</defs>
</svg>
