<svg width="24" height="24" viewBox="0 0 24 24" fill="none" xmlns="http://www.w3.org/2000/svg">
<g clip-path="url(#clip0_16_92)">
<path d="M19.6212 9.78925C19.9021 9.78925 20.1298 9.56156 20.1298 9.28066V7.64921C20.1298 7.36831 19.9021 7.14062 19.6212 7.14062L18.8974 7.14503L16.5221 9.78925H19.6212Z" fill="#666666"/>
<path d="M4.37644 9.78917H7.49996L5.08351 7.14062H4.37644C4.09555 7.14062 3.86786 7.36831 3.86786 7.64921V9.28054C3.86786 9.56148 4.09555 9.78917 4.37644 9.78917Z" fill="#666666"/>
<path d="M12.2907 12.4118L17.0039 7.14062H6.99426L11.7849 12.4138C11.9207 12.5633 12.156 12.5624 12.2907 12.4118Z" fill="#666666"/>
<path d="M13.6175 19.8298H12.7419V13.9112C12.5319 14.0325 12.2919 14.0987 12.0443 14.0997C12.0424 14.0997 12.0406 14.0997 12.0387 14.0997C11.7893 14.0997 11.5472 14.0333 11.3355 13.9111V19.8298H10.3803C9.99196 19.8298 9.67712 20.1446 9.67712 20.533C9.67712 20.9213 9.99196 21.2362 10.3803 21.2362H13.6175C14.0059 21.2362 14.3207 20.9213 14.3207 20.533C14.3207 20.1446 14.0058 19.8298 13.6175 19.8298Z" fill="#666666"/>
<path d="M5.92969 11.7456H1.40635V3.41045C1.40635 3.02211 1.09152 2.70728 0.703176 2.70728C0.314835 2.70728 0 3.02211 0 3.41045V20.5894C0 20.9777 0.314835 21.2925 0.703176 21.2925C1.09152 21.2925 1.40635 20.9777 1.40635 20.5894V15.337H6.51905V20.5894C6.51905 20.9777 6.83388 21.2925 7.22223 21.2925C7.61057 21.2925 7.9254 20.9777 7.9254 20.5894V13.7413C7.9254 12.6409 7.03012 11.7456 5.92969 11.7456Z" fill="#666666"/>
<path d="M23.2966 2.70728C22.9083 2.70728 22.5935 3.02211 22.5935 3.41045V11.7456H18.1749C17.0744 11.7456 16.1792 12.6409 16.1792 13.7413V20.5894C16.1792 20.9777 16.494 21.2925 16.8824 21.2925C17.2707 21.2925 17.5855 20.9777 17.5855 20.5894V15.3359H22.5935V20.5894C22.5935 20.9777 22.9083 21.2925 23.2967 21.2925C23.685 21.2925 23.9998 20.9777 23.9998 20.5894V3.41045C23.9998 3.02211 23.685 2.70728 23.2966 2.70728Z" fill="#666666"/>
</g>
<defs>
<clipPath id="clip0_16_92">
<rect width="24" height="24" fill="white"/>
</clipPath>
</defs>
</svg>
