<svg width="16" height="16" viewBox="0 0 16 16" fill="none" xmlns="http://www.w3.org/2000/svg">
<g clip-path="url(#clip0_20_317)">
<path d="M3.55507 8.62432L10.6753 15.7444C10.84 15.9092 11.0598 16 11.2942 16C11.5286 16 11.7484 15.9092 11.9131 15.7444L12.4375 15.2202C12.7787 14.8786 12.7787 14.3234 12.4375 13.9823L6.45846 8.00332L12.4441 2.01768C12.6088 1.85286 12.6997 1.63316 12.6997 1.39888C12.6997 1.16435 12.6088 0.944643 12.4441 0.779701L11.9197 0.255608C11.7549 0.0907965 11.5352 9.53674e-07 11.3008 9.53674e-07C11.0664 9.53674e-07 10.8466 0.0907965 10.6819 0.255608L3.55507 7.38218C3.39 7.54752 3.29933 7.76826 3.29985 8.00293C3.29933 8.2385 3.39 8.45912 3.55507 8.62432Z" fill="#D1CECE"/>
</g>
<defs>
<clipPath id="clip0_20_317">
<rect width="16" height="16" fill="white" transform="matrix(-1 0 0 -1 16 16)"/>
</clipPath>
</defs>
</svg>
