<svg width="50" height="50" viewBox="0 0 50 50" fill="none" xmlns="http://www.w3.org/2000/svg">
<g clip-path="url(#clip0_9_190)">
<path d="M46.2389 13.5661L46.2374 13.5272C46.2156 13.047 46.2011 12.5388 46.1924 11.9735C46.1515 9.21664 43.96 6.93622 41.2027 6.7821C35.454 6.46129 31.0068 4.58675 27.207 0.883073L27.1746 0.852174C25.9352 -0.284221 24.0656 -0.284221 22.8259 0.852174L22.7934 0.883073C18.9936 4.58675 14.5465 6.46129 8.79774 6.78249C6.04087 6.93622 3.84895 9.21664 3.80813 11.9739C3.79974 12.5354 3.78486 13.0435 3.76312 13.5272L3.76083 13.6176C3.64906 19.4797 3.51021 26.7753 5.95084 33.3972C7.29285 37.0387 9.32531 40.2041 11.9914 42.8061C15.0279 45.7693 19.0051 48.1219 23.8123 49.798C23.9688 49.8526 24.1313 49.8968 24.2968 49.93C24.5303 49.9766 24.7653 49.9998 25.0002 49.9998C25.2352 49.9998 25.4706 49.9766 25.7037 49.93C25.8692 49.8968 26.0329 49.8522 26.19 49.7973C30.9916 48.118 34.9646 45.7644 37.9984 42.8015C40.6633 40.1988 42.6958 37.0326 44.039 33.3903C46.4888 26.7486 46.3503 19.4392 46.2389 13.5661ZM41.2863 32.3752C38.7121 39.3546 33.4574 44.1477 25.2219 47.0278C25.1925 47.0377 25.1612 47.0465 25.1288 47.053C25.0437 47.0698 24.9571 47.0698 24.8709 47.0526C24.8389 47.0461 24.8076 47.0377 24.7786 47.0278C16.5343 44.1531 11.2761 39.3626 8.7039 32.3829C6.45438 26.279 6.58179 19.5819 6.69432 13.6737L6.69509 13.6409C6.71798 13.1332 6.73323 12.6014 6.74163 12.017C6.75994 10.7929 7.73497 9.78007 8.96139 9.71178C12.2146 9.53021 15.0725 8.90154 17.6986 7.78995C20.3211 6.67987 22.6504 5.11509 24.8187 3.00633C24.9289 2.91325 25.072 2.91287 25.1818 3.00633C27.3505 5.11509 29.6797 6.67987 32.3019 7.78995C34.928 8.90154 37.7859 9.53021 41.0395 9.71178C42.2659 9.78007 43.2409 10.7929 43.2589 12.0174C43.2676 12.6048 43.2829 13.1366 43.3058 13.6409C43.4179 19.556 43.5423 26.2584 41.2863 32.3752Z" fill="#244D4D"/>
<path d="M24.9993 12.54C18.1283 12.54 12.5386 18.1301 12.5386 25.0007C12.5386 31.8718 18.1283 37.4618 24.9993 37.4618C31.87 37.4618 37.4601 31.8718 37.4601 25.0007C37.4601 18.1301 31.87 12.54 24.9993 12.54ZM24.9993 34.5276C19.7461 34.5276 15.4725 30.254 15.4725 25.0007C15.4725 19.7475 19.7461 15.4739 24.9993 15.4739C30.2522 15.4739 34.5258 19.7475 34.5258 25.0007C34.5258 30.254 30.2522 34.5276 24.9993 34.5276Z" fill="#244D4D"/>
<path d="M28.5806 21.1323L22.7929 26.9199L21.222 25.349C20.6491 24.7761 19.7202 24.7761 19.1472 25.349C18.5746 25.922 18.5746 26.8509 19.1472 27.4235L21.7557 30.032C22.0422 30.3185 22.4176 30.4615 22.7929 30.4615C23.1683 30.4615 23.5437 30.3185 23.8301 30.032L30.6554 23.2067C31.228 22.6337 31.228 21.7049 30.6554 21.1323C30.0824 20.5589 29.1535 20.5589 28.5806 21.1323Z" fill="#244D4D"/>
</g>
<defs>
<clipPath id="clip0_9_190">
<rect width="50" height="50" fill="white"/>
</clipPath>
</defs>
</svg>
