<svg width="90" height="32" viewBox="0 0 90 32" fill="none" xmlns="http://www.w3.org/2000/svg">
<g clip-path="url(#clip0_1_25)">
<path d="M32.8535 29.76L37.4046 4.15997H44.5157L40.1068 29.76H32.8535Z" fill="#3C58BF"/>
<path d="M32.8535 29.76L38.6846 4.15997H44.5157L40.1068 29.76H32.8535Z" fill="#293688"/>
<path d="M65.8489 4.44448C64.4266 3.87559 62.1511 3.3067 59.3066 3.3067C52.1955 3.3067 47.0755 6.86225 47.0755 11.9823C47.0755 15.8223 50.6311 17.8134 53.4755 19.0934C56.32 20.3734 57.1733 21.2267 57.1733 22.3645C57.1733 24.0711 54.8978 24.9245 52.9066 24.9245C50.0622 24.9245 48.4978 24.4978 46.08 23.5023L45.0844 23.0756L44.0889 28.9067C45.7955 29.6178 48.9244 30.3289 52.1955 30.3289C59.7333 30.3289 64.7111 26.7734 64.7111 21.3689C64.7111 18.3823 62.8622 16.1067 58.5955 14.2578C56.0355 12.9778 54.4711 12.2667 54.4711 10.9867C54.4711 9.84892 55.7511 8.71114 58.5955 8.71114C61.0133 8.71114 62.72 9.13781 64 9.7067L64.7111 9.99114L65.8489 4.44448Z" fill="#3C58BF"/>
<path d="M65.8489 4.44448C64.4266 3.87559 62.1511 3.3067 59.3066 3.3067C52.1955 3.3067 48.3555 6.86225 48.3555 11.9823C48.3555 15.8223 50.6311 17.8134 53.4755 19.0934C56.32 20.3734 57.1733 21.2267 57.1733 22.3645C57.1733 24.0711 54.8978 24.9245 52.9066 24.9245C50.0622 24.9245 48.4978 24.4978 46.08 23.5023L45.0844 23.0756L44.0889 28.9067C45.7955 29.6178 48.9244 30.3289 52.1955 30.3289C59.7333 30.3289 64.7111 26.7734 64.7111 21.3689C64.7111 18.3823 62.8622 16.1067 58.5955 14.2578C56.0355 12.9778 54.4711 12.2667 54.4711 10.9867C54.4711 9.84892 55.7511 8.71114 58.5955 8.71114C61.0133 8.71114 62.72 9.13781 64 9.7067L64.7111 9.99114L65.8489 4.44448Z" fill="#293688"/>
<path d="M78.08 4.15997C76.3733 4.15997 75.0933 4.3022 74.3822 6.00886L63.7156 29.76H71.3956L72.8178 25.4933H81.92L82.7733 29.76H89.6L83.6267 4.15997H78.08V4.15997ZM74.8089 21.2266C75.2356 19.9466 77.6533 13.6889 77.6533 13.6889C77.6533 13.6889 78.2222 12.1244 78.6489 11.1289L79.0756 13.5466C79.0756 13.5466 80.4978 19.9466 80.7822 21.3689H74.8089V21.2266Z" fill="#3C58BF"/>
<path d="M79.7867 4.15997C78.08 4.15997 76.8 4.3022 76.0889 6.00886L63.7156 29.76H71.3956L72.8178 25.4933H81.92L82.7733 29.76H89.6L83.6267 4.15997H79.7867V4.15997ZM74.8089 21.2266C75.3778 19.8044 77.6533 13.6889 77.6533 13.6889C77.6533 13.6889 78.2222 12.1244 78.6489 11.1289L79.0756 13.5466C79.0756 13.5466 80.4978 19.9466 80.7822 21.3689H74.8089V21.2266Z" fill="#293688"/>
<path d="M19.7688 22.08L19.0577 18.3822C17.7777 14.1156 13.6532 9.42225 9.10211 7.14669L15.5021 29.9022H23.1821L34.7021 4.30225H27.0221L19.7688 22.08Z" fill="#3C58BF"/>
<path d="M19.7688 22.08L19.0577 18.3822C17.7777 14.1156 13.6532 9.42225 9.10211 7.14669L15.5021 29.9022H23.1821L34.7021 4.30225H28.4443L19.7688 22.08Z" fill="#293688"/>
<path d="M0 4.15997L1.28 4.44442C10.3822 6.57775 16.64 11.9822 19.0578 18.3822L16.4978 6.29331C16.0711 4.58664 14.7911 4.15997 13.2267 4.15997H0V4.15997Z" fill="#FFBC00"/>
<path d="M0 4.15997C9.10222 6.29331 16.64 11.84 19.0578 18.24L16.64 8.1422C16.2133 6.43553 14.7911 5.43998 13.2267 5.43998L0 4.15997Z" fill="#F7981D"/>
<path d="M0 4.15997C9.10222 6.29331 16.64 11.84 19.0578 18.24L17.3511 12.6933C16.9244 10.9866 16.3556 9.27997 14.3644 8.56886L0 4.15997Z" fill="#ED7C00"/>
<path d="M26.8799 21.2266L22.0444 16.3911L19.7688 21.7955L19.1999 18.24C17.9199 13.9733 13.7955 9.27995 9.24438 7.00439L15.6444 29.7599H23.3244L26.8799 21.2266Z" fill="#051244"/>
<path d="M40.106 29.7601L33.9904 23.5023L32.8527 29.7601H40.106Z" fill="#051244"/>
<path d="M56.4622 20.9422C57.0311 21.5111 57.3155 21.9378 57.1733 22.5066C57.1733 24.2133 54.8978 25.0666 52.9066 25.0666C50.0622 25.0666 48.4978 24.64 46.08 23.6444L45.0844 23.2178L44.0889 29.0489C45.7955 29.76 48.9244 30.4711 52.1955 30.4711C56.7466 30.4711 60.4444 29.1911 62.5778 26.9155L56.4622 20.9422Z" fill="#051244"/>
<path d="M64.7111 29.7598H71.3955L72.8177 25.4932H81.9199L82.7733 29.7598H89.5999L87.1822 19.3776L78.6488 11.1287L79.0755 13.4043C79.0755 13.4043 80.4977 19.8043 80.7822 21.2265H74.8088C75.3777 19.8043 77.6533 13.6887 77.6533 13.6887C77.6533 13.6887 78.2222 12.1243 78.6488 11.1287" fill="#051244"/>
</g>
<defs>
<clipPath id="clip0_1_25">
<rect width="89.6" height="32" fill="white"/>
</clipPath>
</defs>
</svg>
